<svg preserveAspectRatio="none" overflow="visible" style="display: block;" width="27.233" height="24.845" viewBox="0 0 27.233 24.845" fill="none" xmlns="http://www.w3.org/2000/svg">
<g id="Group 1">
<g id="Vector">
<path d="M7.45821 0.0737429L7.46733 0.0307014C7.54837 0.000616571 7.96241 0.00482503 8.0795 0.0035937C9.14566 -0.00750662 10.3018 -0.0199667 11.2926 0.417614C12.1973 0.817152 12.4645 1.55764 12.8421 2.40332C13.6877 4.25298 14.4886 6.35294 15.2301 8.25134C16.643 11.8982 18.0172 15.56 19.3518 19.2362L20.4537 22.2919C20.7511 23.1271 21.0345 23.9492 21.3511 24.7775C19.8116 24.9104 18.1727 24.266 17.0027 23.283C16.3821 22.755 15.8769 22.1048 15.5187 21.3728C15.2382 20.8089 14.8718 19.6853 14.649 19.0603C14.2434 17.9326 13.8281 16.8084 13.4032 15.6879L10.2548 7.43208C10.1339 7.11589 9.96438 6.71304 9.86022 6.3994C9.64426 7.03515 9.45938 7.7167 9.23671 8.3426C9.19784 8.32174 9.20976 8.33005 9.1767 8.29557C9.17889 8.23147 9.18931 8.12773 9.13881 8.08522C9.04065 8.01555 8.81153 7.9356 8.69084 7.93104C7.84626 7.89918 6.99712 7.92579 6.15146 7.91947C5.89314 7.91754 5.60506 7.94259 5.35349 8.00123C5.25924 8.02319 5.19825 8.12986 5.07622 8.13418L5.0488 8.02687C5.13056 7.71043 5.26843 7.29866 5.36484 6.97989L5.99337 4.90231C6.47442 3.31263 6.95258 1.65241 7.45821 0.0737429Z" fill="url(#paint0_linear_0_33)"/>
<path d="M7.45821 0.0737429L7.46733 0.0307014C7.54837 0.000616571 7.96241 0.00482503 8.0795 0.0035937C9.14566 -0.00750662 10.3018 -0.0199667 11.2926 0.417614C12.1973 0.817152 12.4645 1.55764 12.8421 2.40332C12.8332 2.44673 12.8415 2.44715 12.8187 2.47081L12.7759 2.433C12.7615 2.47884 12.8007 2.57558 12.8125 2.65089C12.7153 2.8135 12.3542 2.68427 12.195 2.69445C12.0674 2.70261 12.052 2.74348 11.9714 2.82673C11.55 2.83568 11.0166 2.75815 10.5856 2.73683C10.2768 2.72156 9.93154 2.69785 9.62494 2.66548C9.47288 2.65771 9.10076 2.44728 8.96598 2.45539C8.46104 2.48577 8.5937 2.56143 8.25745 2.17031C8.22478 2.11512 8.11556 1.81249 8.08527 1.73172C7.95421 1.38228 7.82493 1.03219 7.69742 0.681449C7.64296 0.532825 7.53001 0.202775 7.45821 0.0737429Z" fill="url(#paint1_linear_0_33)"/>
</g>
<g id="Vector_2">
<path d="M5.0488 8.02686L5.07622 8.13417C5.19825 8.12985 5.25925 8.02319 5.35349 8.00123C5.60507 7.94258 5.89314 7.91753 6.15147 7.91946C6.99713 7.92579 7.84627 7.89917 8.69085 7.93104C8.81154 7.9356 9.04066 8.01554 9.13881 8.08521C9.18932 8.12772 9.1789 8.23147 9.17671 8.29557C9.20977 8.33005 9.19784 8.32174 9.23671 8.3426C9.15306 8.65552 9.02391 9.0312 8.9243 9.34341L8.39246 11.0175L7.93917 12.4512C7.87415 12.6566 7.77924 12.9893 7.70266 13.1822C7.77259 13.1953 8.33748 12.9099 8.45758 12.8564C9.37139 12.4499 11.0162 11.9507 11.7085 12.9749C11.9073 13.2688 12.1261 13.7538 12.2699 14.0853C12.5428 14.7199 12.7945 15.3635 13.0248 16.015C12.1973 16.2995 11.3864 16.5533 10.5999 16.9345C8.76425 17.8238 7.03802 19.5116 5.9732 21.2394C5.63209 21.7929 5.33609 22.3999 5.01401 22.9665C4.94368 23.0902 4.74443 23.4659 4.67264 23.5495C4.62188 23.6746 4.39975 23.9089 4.29622 23.9962C3.1208 24.989 1.42104 24.8795 1.21862e-05 24.7881C0.0180778 24.5345 0.241224 23.5416 0.308193 23.2642C0.536044 22.1173 0.993473 20.9253 1.45869 19.8527C1.51537 19.7221 1.55624 19.5565 1.6037 19.4179C1.95062 18.1599 2.39391 16.7954 2.77541 15.535L5.0488 8.02686Z" fill="#2228FF"/>
<path d="M5.0488 8.02686L5.07622 8.13417C5.19825 8.12985 5.25925 8.02319 5.35349 8.00123C5.60507 7.94258 5.89314 7.91753 6.15147 7.91946C6.99713 7.92579 7.84627 7.89917 8.69085 7.93104C8.81154 7.9356 9.04066 8.01554 9.13881 8.08521C9.18932 8.12772 9.1789 8.23147 9.17671 8.29557C9.20977 8.33005 9.19784 8.32174 9.23671 8.3426C9.15306 8.65552 9.02391 9.0312 8.9243 9.34341L8.39246 11.0175L7.93917 12.4512C7.87415 12.6566 7.77924 12.9893 7.70266 13.1822C7.77259 13.1953 8.33748 12.9099 8.45758 12.8564C9.37139 12.4499 11.0162 11.9507 11.7085 12.9749C11.9073 13.2688 12.1261 13.7538 12.2699 14.0853C12.5428 14.7199 12.7945 15.3635 13.0248 16.015C12.1973 16.2995 11.3864 16.5533 10.5999 16.9345C8.76425 17.8238 7.03802 19.5116 5.9732 21.2394C5.63209 21.7929 5.33609 22.3999 5.01401 22.9665C4.94368 23.0902 4.74443 23.4659 4.67264 23.5495C4.62188 23.6746 4.39975 23.9089 4.29622 23.9962C3.1208 24.989 1.42104 24.8795 1.21862e-05 24.7881C0.0180778 24.5345 0.241224 23.5416 0.308193 23.2642C0.536044 22.1173 0.993473 20.9253 1.45869 19.8527C1.51537 19.7221 1.55624 19.5565 1.6037 19.4179C1.95062 18.1599 2.39391 16.7954 2.77541 15.535L5.0488 8.02686Z" fill="url(#paint2_linear_0_33)"/>
<path d="M0.308193 23.2642C0.374501 23.2078 0.380603 23.1297 0.40159 23.0468C0.43434 23.0827 0.43219 23.084 0.45134 23.1295C0.577027 23.1407 0.839134 23.0422 0.987426 23.0349C1.65183 23.002 2.30638 23.0064 2.97185 23.0073C3.40187 23.0079 3.84115 23.0068 4.27174 23.0334C4.33206 23.0371 4.45238 23.0994 4.50843 23.122C4.52924 23.1305 4.59832 23.0659 4.62886 23.1257C4.70488 23.2745 4.6949 23.401 4.67264 23.5495C4.62188 23.6746 4.39975 23.9089 4.29622 23.9962C3.1208 24.989 1.42104 24.8795 1.21862e-05 24.7881C0.0180778 24.5345 0.241224 23.5416 0.308193 23.2642Z" fill="#2228FF"/>
<path d="M0.308193 23.2642C0.374501 23.2078 0.380603 23.1297 0.40159 23.0468C0.43434 23.0827 0.43219 23.084 0.45134 23.1295C0.577027 23.1407 0.839134 23.0422 0.987426 23.0349C1.65183 23.002 2.30638 23.0064 2.97185 23.0073C3.40187 23.0079 3.84115 23.0068 4.27174 23.0334C4.33206 23.0371 4.45238 23.0994 4.50843 23.122C4.52924 23.1305 4.59832 23.0659 4.62886 23.1257C4.70488 23.2745 4.6949 23.401 4.67264 23.5495C4.62188 23.6746 4.39975 23.9089 4.29622 23.9962C3.1208 24.989 1.42104 24.8795 1.21862e-05 24.7881C0.0180778 24.5345 0.241224 23.5416 0.308193 23.2642Z" fill="url(#paint3_linear_0_33)"/>
</g>
<g id="Vector_3">
<path d="M7.45821 0.0737324C7.53002 0.202764 7.64297 0.532815 7.69742 0.681438C7.82493 1.03218 7.95422 1.38227 8.08527 1.73171C8.11556 1.81248 8.22478 2.11511 8.25746 2.1703C8.38265 2.55614 8.57135 3.01938 8.71731 3.40411L9.56452 5.63264C9.65442 5.86915 9.7809 6.16662 9.86022 6.39939C9.64426 7.03514 9.45938 7.71669 9.23671 8.34259C9.19784 8.32173 9.20977 8.33004 9.17671 8.29556C9.17889 8.23146 9.18931 8.12771 9.13881 8.08521C9.04065 8.01553 8.81154 7.93559 8.69085 7.93103C7.84627 7.89917 6.99713 7.92578 6.15146 7.91945C5.89314 7.91753 5.60507 7.94257 5.35349 8.00122C5.25925 8.02318 5.19825 8.12985 5.07622 8.13417L5.0488 8.02686C5.13057 7.71042 5.26844 7.29865 5.36485 6.97988L5.99338 4.9023C6.47442 3.31262 6.95258 1.6524 7.45821 0.0737324Z" fill="#92A0FF"/>
<path d="M7.45821 0.0737324C7.53002 0.202764 7.64297 0.532815 7.69742 0.681438C7.82493 1.03218 7.95422 1.38227 8.08527 1.73171C8.11556 1.81248 8.22478 2.11511 8.25746 2.1703C8.38265 2.55614 8.57135 3.01938 8.71731 3.40411L9.56452 5.63264C9.65442 5.86915 9.7809 6.16662 9.86022 6.39939C9.64426 7.03514 9.45938 7.71669 9.23671 8.34259C9.19784 8.32173 9.20977 8.33004 9.17671 8.29556C9.17889 8.23146 9.18931 8.12771 9.13881 8.08521C9.04065 8.01553 8.81154 7.93559 8.69085 7.93103C7.84627 7.89917 6.99713 7.92578 6.15146 7.91945C5.89314 7.91753 5.60507 7.94257 5.35349 8.00122C5.25925 8.02318 5.19825 8.12985 5.07622 8.13417L5.0488 8.02686C5.13057 7.71042 5.26844 7.29865 5.36485 6.97988L5.99338 4.9023C6.47442 3.31262 6.95258 1.6524 7.45821 0.0737324Z" fill="url(#paint4_linear_0_33)"/>
<path d="M5.0488 8.02686L5.07622 8.13417C5.19825 8.12985 5.25925 8.02318 5.35349 8.00122C5.60507 7.94257 5.89314 7.91753 6.15146 7.91945C6.99713 7.92578 7.84627 7.89917 8.69085 7.93103C8.81154 7.93559 9.04065 8.01553 9.13881 8.08521C9.18931 8.12771 9.17889 8.23146 9.17671 8.29556C9.20977 8.33004 9.19784 8.32173 9.23671 8.34259C9.15305 8.65551 9.02391 9.0312 8.9243 9.3434L8.39246 11.0175L7.93917 12.4512C7.87415 12.6566 7.77924 12.9893 7.70266 13.1822C7.63644 13.2591 7.01155 13.5939 6.86751 13.6821C6.62955 13.8302 6.39532 13.9841 6.16503 14.1438C4.98161 14.9724 3.85044 16.1709 2.98421 17.3234C2.59219 17.8431 2.23605 18.3889 1.91822 18.957C1.8593 19.0625 1.72023 19.3826 1.62492 19.4234L1.60369 19.4179C1.95062 18.1599 2.39391 16.7954 2.7754 15.535L5.0488 8.02686Z" fill="#92A0FF"/>
<path d="M5.0488 8.02686L5.07622 8.13417C5.19825 8.12985 5.25925 8.02318 5.35349 8.00122C5.60507 7.94257 5.89314 7.91753 6.15146 7.91945C6.99713 7.92578 7.84627 7.89917 8.69085 7.93103C8.81154 7.93559 9.04065 8.01553 9.13881 8.08521C9.18931 8.12771 9.17889 8.23146 9.17671 8.29556C9.20977 8.33004 9.19784 8.32173 9.23671 8.34259C9.15305 8.65551 9.02391 9.0312 8.9243 9.3434L8.39246 11.0175L7.93917 12.4512C7.87415 12.6566 7.77924 12.9893 7.70266 13.1822C7.63644 13.2591 7.01155 13.5939 6.86751 13.6821C6.62955 13.8302 6.39532 13.9841 6.16503 14.1438C4.98161 14.9724 3.85044 16.1709 2.98421 17.3234C2.59219 17.8431 2.23605 18.3889 1.91822 18.957C1.8593 19.0625 1.72023 19.3826 1.62492 19.4234L1.60369 19.4179C1.95062 18.1599 2.39391 16.7954 2.7754 15.535L5.0488 8.02686Z" fill="url(#paint5_linear_0_33)"/>
</g>
<g id="Vector_4">
<path d="M12.3354 0.102338C15.8188 0.00171851 19.7175 -0.29788 22.9441 1.27054C25.0995 2.31814 26.1992 3.96338 26.9289 6.17754L26.8785 6.26568C26.8156 6.24775 26.8105 6.21353 26.7789 6.15455C26.7396 6.18563 26.7513 6.17251 26.7236 6.21571C26.651 6.25872 26.2182 6.18177 26.0893 6.18364C25.1949 6.19634 24.3004 6.18318 23.406 6.19178C23.2077 6.1937 22.9711 6.25124 22.7751 6.28869C22.7563 6.29229 22.7131 6.43596 22.6966 6.46244C22.6727 6.40547 22.6484 6.34872 22.6238 6.29215C21.8438 4.52549 19.4935 3.95481 17.7411 3.86028C16.703 3.80424 15.6475 3.95865 14.6518 3.59192C13.8808 3.308 13.5566 2.56413 13.1786 1.89407C12.8756 1.32532 12.5885 0.69615 12.3354 0.102338Z" fill="#0017FF"/>
<path d="M12.3354 0.102338C15.8188 0.00171851 19.7175 -0.29788 22.9441 1.27054C25.0995 2.31814 26.1992 3.96338 26.9289 6.17754L26.8785 6.26568C26.8156 6.24775 26.8105 6.21353 26.7789 6.15455C26.7396 6.18563 26.7513 6.17251 26.7236 6.21571C26.651 6.25872 26.2182 6.18177 26.0893 6.18364C25.1949 6.19634 24.3004 6.18318 23.406 6.19178C23.2077 6.1937 22.9711 6.25124 22.7751 6.28869C22.7563 6.29229 22.7131 6.43596 22.6966 6.46244C22.6727 6.40547 22.6484 6.34872 22.6238 6.29215C21.8438 4.52549 19.4935 3.95481 17.7411 3.86028C16.703 3.80424 15.6475 3.95865 14.6518 3.59192C13.8808 3.308 13.5566 2.56413 13.1786 1.89407C12.8756 1.32532 12.5885 0.69615 12.3354 0.102338Z" fill="url(#paint6_linear_0_33)"/>
<path d="M22.6966 6.46244C22.7131 6.43596 22.7563 6.29229 22.7751 6.28869C22.9711 6.25124 23.2077 6.1937 23.406 6.19178C24.3004 6.18318 25.1949 6.19634 26.0893 6.18364C26.2182 6.18177 26.651 6.25872 26.7236 6.21571C26.7513 6.17251 26.7396 6.18563 26.7789 6.15455C26.8105 6.21353 26.8156 6.24775 26.8785 6.26568L26.9289 6.17754C28.2741 11.0127 24.9639 13.2563 20.7985 14.3193C19.9781 14.5286 19.1391 14.7128 18.2998 14.8289C17.9244 13.8382 17.3638 12.7419 17.2243 11.6965C17.0961 10.7335 18.8598 10.3569 19.5346 10.2124C20.7579 9.95059 21.9982 9.56887 22.5852 8.35502C22.9133 7.68505 22.877 7.15753 22.6966 6.46244Z" fill="#0017FF"/>
<path d="M22.6966 6.46244C22.7131 6.43596 22.7563 6.29229 22.7751 6.28869C22.9711 6.25124 23.2077 6.1937 23.406 6.19178C24.3004 6.18318 25.1949 6.19634 26.0893 6.18364C26.2182 6.18177 26.651 6.25872 26.7236 6.21571C26.7513 6.17251 26.7396 6.18563 26.7789 6.15455C26.8105 6.21353 26.8156 6.24775 26.8785 6.26568L26.9289 6.17754C28.2741 11.0127 24.9639 13.2563 20.7985 14.3193C19.9781 14.5286 19.1391 14.7128 18.2998 14.8289C17.9244 13.8382 17.3638 12.7419 17.2243 11.6965C17.0961 10.7335 18.8598 10.3569 19.5346 10.2124C20.7579 9.95059 21.9982 9.56887 22.5852 8.35502C22.9133 7.68505 22.877 7.15753 22.6966 6.46244Z" fill="url(#paint7_linear_0_33)"/>
</g>
</g>
<defs>
<linearGradient id="paint0_linear_0_33" x1="9.40955" y1="1.01003e-05" x2="18.725" y2="24.7942" gradientUnits="userSpaceOnUse">
<stop stop-color="#02026C"/>
<stop offset="1" stop-color="#1749FF"/>
</linearGradient>
<linearGradient id="paint1_linear_0_33" x1="9.40955" y1="1.01003e-05" x2="18.725" y2="24.7942" gradientUnits="userSpaceOnUse">
<stop stop-color="#02026C"/>
<stop offset="1" stop-color="#1749FF"/>
</linearGradient>
<linearGradient id="paint2_linear_0_33" x1="7.3865" y1="20.701" x2="3.99129" y2="16.02" gradientUnits="userSpaceOnUse">
<stop stop-color="#02026C"/>
<stop offset="1" stop-color="#1843DF"/>
</linearGradient>
<linearGradient id="paint3_linear_0_33" x1="7.3865" y1="20.701" x2="3.99129" y2="16.02" gradientUnits="userSpaceOnUse">
<stop stop-color="#02026C"/>
<stop offset="1" stop-color="#1843DF"/>
</linearGradient>
<linearGradient id="paint4_linear_0_33" x1="1.59963" y1="22.5123" x2="3.34679" y2="0.26325" gradientUnits="userSpaceOnUse">
<stop stop-color="#02026C"/>
<stop offset="1" stop-color="#1843DF"/>
</linearGradient>
<linearGradient id="paint5_linear_0_33" x1="1.59963" y1="22.5123" x2="3.34679" y2="0.26325" gradientUnits="userSpaceOnUse">
<stop stop-color="#02026C"/>
<stop offset="1" stop-color="#1843DF"/>
</linearGradient>
<linearGradient id="paint6_linear_0_33" x1="18.1604" y1="14.82" x2="18.8044" y2="1.97341" gradientUnits="userSpaceOnUse">
<stop stop-color="#02026C"/>
<stop offset="1" stop-color="#1843DF"/>
</linearGradient>
<linearGradient id="paint7_linear_0_33" x1="18.1604" y1="14.82" x2="18.8044" y2="1.97341" gradientUnits="userSpaceOnUse">
<stop stop-color="#02026C"/>
<stop offset="1" stop-color="#1843DF"/>
</linearGradient>
</defs>
</svg>
